<svg id="visual" viewBox="0 0 960 540" width="960" height="540" xmlns="http://www.w3.org/2000/svg" xmlns:xlink="http://www.w3.org/1999/xlink" version="1.1"><rect x="0" y="0" width="960" height="540" fill="#edf1f4"></rect><path d="M0 323L22.8 327.2C45.7 331.3 91.3 339.7 137 349.5C182.7 359.3 228.3 370.7 274 376.5C319.7 382.3 365.3 382.7 411.2 383.5C457 384.3 503 385.7 548.8 374.8C594.7 364 640.3 341 686 331C731.7 321 777.3 324 823 335.7C868.7 347.3 914.3 367.7 937.2 377.8L960 388L960 541L937.2 541C914.3 541 868.7 541 823 541C777.3 541 731.7 541 686 541C640.3 541 594.7 541 548.8 541C503 541 457 541 411.2 541C365.3 541 319.7 541 274 541C228.3 541 182.7 541 137 541C91.3 541 45.7 541 22.8 541L0 541Z" fill="#5f87e2"></path><path d="M0 394L22.8 388.7C45.7 383.3 91.3 372.7 137 373.2C182.7 373.7 228.3 385.3 274 387.7C319.7 390 365.3 383 411.2 379.2C457 375.3 503 374.7 548.8 371C594.7 367.3 640.3 360.7 686 367.7C731.7 374.7 777.3 395.3 823 399C868.7 402.7 914.3 389.3 937.2 382.7L960 376L960 541L937.2 541C914.3 541 868.7 541 823 541C777.3 541 731.7 541 686 541C640.3 541 594.7 541 548.8 541C503 541 457 541 411.2 541C365.3 541 319.7 541 274 541C228.3 541 182.7 541 137 541C91.3 541 45.7 541 22.8 541L0 541Z" fill="#3963ba"></path><path d="M0 448L22.8 444.2C45.7 440.3 91.3 432.7 137 431.7C182.7 430.7 228.3 436.3 274 435.3C319.7 434.3 365.3 426.7 411.2 419.8C457 413 503 407 548.8 412.5C594.7 418 640.3 435 686 440.8C731.7 446.7 777.3 441.3 823 441.7C868.7 442 914.3 448 937.2 451L960 454L960 541L937.2 541C914.3 541 868.7 541 823 541C777.3 541 731.7 541 686 541C640.3 541 594.7 541 548.8 541C503 541 457 541 411.2 541C365.3 541 319.7 541 274 541C228.3 541 182.7 541 137 541C91.3 541 45.7 541 22.8 541L0 541Z" fill="#004293"></path><path d="M0 451L22.8 456.2C45.7 461.3 91.3 471.7 137 470.3C182.7 469 228.3 456 274 452.8C319.7 449.7 365.3 456.3 411.2 463C457 469.7 503 476.3 548.8 473C594.7 469.7 640.3 456.3 686 448.7C731.7 441 777.3 439 823 439.8C868.7 440.7 914.3 444.3 937.2 446.2L960 448L960 541L937.2 541C914.3 541 868.7 541 823 541C777.3 541 731.7 541 686 541C640.3 541 594.7 541 548.8 541C503 541 457 541 411.2 541C365.3 541 319.7 541 274 541C228.3 541 182.7 541 137 541C91.3 541 45.7 541 22.8 541L0 541Z" fill="#00236d"></path><path d="M0 503L22.8 501.7C45.7 500.3 91.3 497.7 137 499.7C182.7 501.7 228.3 508.3 274 507C319.7 505.7 365.3 496.3 411.2 490.3C457 484.3 503 481.7 548.8 485.2C594.7 488.7 640.3 498.3 686 504C731.7 509.7 777.3 511.3 823 508C868.7 504.7 914.3 496.3 937.2 492.2L960 488L960 541L937.2 541C914.3 541 868.7 541 823 541C777.3 541 731.7 541 686 541C640.3 541 594.7 541 548.8 541C503 541 457 541 411.2 541C365.3 541 319.7 541 274 541C228.3 541 182.7 541 137 541C91.3 541 45.7 541 22.8 541L0 541Z" fill="#000000"></path></svg>